<svg width="33" height="33" viewBox="0 0 33 33" fill="none" xmlns="http://www.w3.org/2000/svg">
<g clip-path="url(#clip0_46_17)">
<path d="M7.5433 31.8817C6.75178 32.5399 5.64365 32.6898 4.70215 32.2483C3.76066 31.8067 3.1691 30.8652 3.1691 29.832V3.17024C3.1691 2.1371 3.76899 1.1956 4.70215 0.754015C5.63531 0.312429 6.74344 0.45407 7.5433 1.12062L23.5404 14.4515L24.4985 15.2514V3.17024C24.4985 1.69551 25.69 0.504061 27.1647 0.504061C28.6394 0.504061 29.8309 1.69551 29.8309 3.17024V29.832C29.8309 31.3068 28.6394 32.4982 27.1647 32.4982C25.69 32.4982 24.4985 31.3068 24.4985 29.832V17.7509L23.5404 18.5508L7.5433 31.8817Z" fill="#1E1E1E"/>
</g>
<defs>
<clipPath id="clip0_46_17">
<rect width="32" height="32" fill="white" transform="translate(0.5 0.5)"/>
</clipPath>
</defs>
</svg>
