<svg width="33" height="33" viewBox="0 0 33 33" fill="none" xmlns="http://www.w3.org/2000/svg">
<g clip-path="url(#clip0_46_11)">
<path d="M25.4567 1.11834C26.2482 0.460125 27.3564 0.310154 28.2978 0.751741C29.2393 1.19333 29.8309 2.13482 29.8309 3.16796L29.8309 29.8298C29.8309 30.8629 29.231 31.8044 28.2978 32.246C27.3647 32.6876 26.2566 32.5459 25.4567 31.8794L9.45963 18.5485L8.50147 17.7486V29.8298C8.50147 31.3045 7.31002 32.4959 5.83529 32.4959C4.36056 32.4959 3.16911 31.3045 3.16911 29.8298L3.16911 3.16796C3.16911 1.69324 4.36056 0.501787 5.83529 0.501787C7.31002 0.501787 8.50147 1.69324 8.50147 3.16796V15.2491L9.45963 14.4492L25.4567 1.11834Z" fill="#1E1E1E"/>
</g>
<defs>
<clipPath id="clip0_46_11">
<rect width="32" height="32" fill="white" transform="matrix(-1 0 0 -1 32.5 32.5)"/>
</clipPath>
</defs>
</svg>
