<svg width="344" height="25" viewBox="0 0 344 25" fill="none" xmlns="http://www.w3.org/2000/svg">
<path d="M139.937 10.76C137.643 13.7733 135.27 16.7467 132.817 19.68L130.697 17.84C131.297 14.2267 131.883 11.3933 132.457 9.34C131.017 11.6333 129.73 13.9333 128.597 16.24C128.143 17.1467 127.657 18.16 127.137 19.28L124.997 17.28C126.237 14.7733 127.277 12.8333 128.117 11.46C129.583 9.08667 131.123 6.84667 132.737 4.74L135.677 7.32C134.89 9.85333 134.303 12.3 133.917 14.66C136.037 12.0867 138.337 9.01333 140.817 5.44L143.677 7.9C142.877 10.4867 142.283 12.28 141.897 13.28C141.523 14.2667 141.203 15.0933 140.937 15.76C140.457 16.96 139.81 18.48 138.997 20.32L136.617 18.38C137.723 16.14 138.503 14.4467 138.957 13.3C139.41 12.1533 139.737 11.3067 139.937 10.76ZM148.389 15.14C147.762 15.14 147.269 15.0933 146.909 15C146.696 15.52 146.562 16.1667 146.509 16.94C148.802 16.8067 151.016 16.2933 153.149 15.4C153.869 15.1067 154.562 14.76 155.229 14.36L155.649 16.38C154.409 17.1667 152.942 17.86 151.249 18.46C149.449 19.1 147.749 19.46 146.149 19.54L143.669 17.24C143.669 15.4 144.169 13.72 145.169 12.2C145.889 11.1467 146.702 10.3133 147.609 9.7C148.529 9.08667 149.409 8.64667 150.249 8.38L153.629 11.18C153.296 12.5667 152.662 13.5733 151.729 14.2C150.796 14.8267 149.682 15.14 148.389 15.14ZM147.749 13.2C148.522 13.2 149.196 12.9867 149.769 12.56C150.436 12.0533 150.769 11.3467 150.769 10.44C149.422 11.1733 148.416 12.0933 147.749 13.2ZM153.871 17.24C154.444 15.1733 155.464 12.8333 156.931 10.22C157.904 8.48667 158.998 6.94667 160.211 5.6C160.824 4.92 161.458 4.34667 162.111 3.88L165.491 6.26C165.038 9.9 163.384 12.4667 160.531 13.96C159.611 14.44 158.584 14.82 157.451 15.1C157.131 15.8867 156.884 16.56 156.711 17.12C158.364 16.8933 159.651 16.64 160.571 16.36C162.371 15.8267 163.871 15.16 165.071 14.36L165.491 16.38C163.531 17.74 161.304 18.6867 158.811 19.22C157.984 19.3933 157.164 19.5 156.351 19.54L153.871 17.24ZM158.611 12.6C159.824 12.0267 160.791 11.2 161.511 10.12C162.231 9.04 162.711 7.77333 162.951 6.32C161.898 7.26667 160.771 8.77333 159.571 10.84C159.224 11.4267 158.904 12.0133 158.611 12.6ZM172.195 16.74C170.915 18.22 169.228 19.1533 167.135 19.54L164.295 17.16C164.295 15.88 164.548 14.6133 165.055 13.36C165.695 11.7867 166.748 10.5133 168.215 9.54C169.228 8.86 170.328 8.44 171.515 8.28L174.695 11C174.468 12.44 174.081 13.6933 173.535 14.76C174.495 14.7067 175.581 14.5733 176.795 14.36L177.235 16.38C175.501 17.1 174.141 17.5867 173.155 17.84L172.195 16.74ZM166.975 16.82C168.495 16.4733 169.761 15.5333 170.775 14C171.201 13.3467 171.508 12.72 171.695 12.12C171.881 11.52 171.981 11.04 171.995 10.68C170.915 10.8267 169.888 11.4 168.915 12.4C167.701 13.64 167.055 15.1133 166.975 16.82ZM182.133 17.74C181.08 18.5667 179.867 19.1667 178.493 19.54L176.013 17.24C176.013 16.1867 176.173 15.1533 176.493 14.14C176.813 13.1267 177.287 12.2133 177.913 11.4C178.54 10.5867 179.313 9.91333 180.233 9.38C181.167 8.83333 182.24 8.50667 183.453 8.4L184.553 10.08C185.593 8.06667 186.687 6.28 187.833 4.72L189.773 6.4C188.453 8.08 187.087 10.4667 185.673 13.56C185.247 14.4933 184.867 15.4067 184.533 16.3C185.96 15.8733 187.453 15.2267 189.013 14.36L189.453 16.38C188.547 17.06 187.08 17.8933 185.053 18.88C184.48 19.1467 184.02 19.34 183.673 19.46L182.133 17.74ZM178.813 16.66C180.24 16.2733 181.54 15.3267 182.713 13.82C183.06 13.06 183.32 12.1133 183.493 10.98C182.12 11.1133 180.993 11.72 180.113 12.8C179.247 13.8667 178.813 15.1533 178.813 16.66ZM193.78 7.68C193.473 7.36 193.32 6.97333 193.32 6.52C193.32 6.06667 193.473 5.68667 193.78 5.38C194.1 5.06 194.487 4.9 194.94 4.9C195.393 4.9 195.773 5.06 196.08 5.38C196.4 5.68667 196.56 6.06667 196.56 6.52C196.56 6.97333 196.4 7.36 196.08 7.68C195.773 7.98667 195.393 8.14 194.94 8.14C194.487 8.14 194.1 7.98667 193.78 7.68ZM190.76 16.48C192.12 16.0667 193.753 15.36 195.66 14.36L196.08 16.38C194.787 17.22 193.227 18.04 191.4 18.84C190.787 19.1067 190.187 19.34 189.6 19.54L187.3 17.42C187.953 15.6333 189.127 13.4067 190.82 10.74C191.327 9.94 191.82 9.24 192.3 8.64L194.28 10.1C193.307 11.4333 192.36 13.04 191.44 14.92C191.173 15.48 190.947 16 190.76 16.48ZM199.581 15.14C198.954 15.14 198.461 15.0933 198.101 15C197.887 15.52 197.754 16.1667 197.701 16.94C199.994 16.8067 202.207 16.2933 204.341 15.4C205.061 15.1067 205.754 14.76 206.421 14.36L206.841 16.38C205.601 17.1667 204.134 17.86 202.441 18.46C200.641 19.1 198.941 19.46 197.341 19.54L194.861 17.24C194.861 15.4 195.361 13.72 196.361 12.2C197.081 11.1467 197.894 10.3133 198.801 9.7C199.721 9.08667 200.601 8.64667 201.441 8.38L204.821 11.18C204.487 12.5667 203.854 13.5733 202.921 14.2C201.987 14.8267 200.874 15.14 199.581 15.14ZM198.941 13.2C199.714 13.2 200.387 12.9867 200.961 12.56C201.627 12.0533 201.961 11.3467 201.961 10.44C200.614 11.1733 199.607 12.0933 198.941 13.2ZM209.022 19.7C208.062 19.06 207.222 18.4533 206.502 17.88C205.849 17.3067 205.136 16.62 204.362 15.82L206.422 14.36C207.356 15.3333 208.042 15.9867 208.482 16.32C208.922 16.64 209.316 16.9133 209.662 17.14C210.036 17.1 210.642 16.9733 211.482 16.76L208.162 13.62C207.856 13.3 207.616 13.0133 207.442 12.76C207.949 11.8533 208.822 10.9133 210.062 9.94C211.222 9.03333 212.329 8.42667 213.382 8.12L216.582 10.7C216.356 11.6067 215.822 12.8067 214.982 14.3L212.842 12.7C213.122 12.2867 213.369 11.84 213.582 11.36C213.796 10.88 213.922 10.56 213.962 10.4C213.216 10.68 212.449 11.1867 211.662 11.92C211.382 12.1867 211.129 12.46 210.902 12.74C211.156 13.1267 211.542 13.5333 212.062 13.96C212.942 14.72 213.682 15.3733 214.282 15.92C215.762 15.4133 217.016 14.8933 218.042 14.36L218.462 16.38C217.396 17.14 215.896 17.8467 213.962 18.5C212.176 19.1 210.529 19.5 209.022 19.7Z" fill="white"/>
</svg>
