<svg width="32" height="33" viewBox="0 0 32 33" fill="none" xmlns="http://www.w3.org/2000/svg">
<path d="M18.1677 3.82513C12.5104 3.82513 7.92737 8.41041 7.92737 14.0651C7.92453 15.928 8.43231 17.756 9.39553 19.3506L4.43073 24.3154L4.44801 24.3327C3.91809 24.8399 3.59265 25.5599 3.59265 26.3736C3.59233 27.9458 4.84481 29.1752 6.41537 29.1749C7.21761 29.1746 7.93505 28.8536 8.44705 28.3314L8.45953 28.3439L13.5821 23.221C15.0052 23.935 16.5755 24.3063 18.1677 24.3051C23.8253 24.3051 28.4074 19.7205 28.4074 14.0651C28.4074 8.41041 23.825 3.82513 18.1677 3.82513ZM18.2298 20.2786C14.6938 20.2786 11.8295 17.4133 11.8295 13.8786C11.8295 10.3445 14.6938 7.47857 18.2298 7.47857C21.7658 7.47857 24.6295 10.3442 24.6295 13.8786C24.6298 17.4133 21.7658 20.2786 18.2298 20.2786Z" fill="white"/>
</svg>
