<svg width="33" height="33" viewBox="0 0 33 33" fill="none" xmlns="http://www.w3.org/2000/svg">
<g clip-path="url(#clip0_46_14)">
<path d="M7.35715 32.5C9.87144 32.5 11.9286 30.4429 11.9286 27.9286V5.07143C11.9286 2.55714 9.87144 0.5 7.35715 0.5C4.84286 0.5 2.78572 2.55714 2.78572 5.07143V27.9286C2.78572 30.4429 4.84286 32.5 7.35715 32.5ZM21.0714 5.07143V27.9286C21.0714 30.4429 23.1286 32.5 25.6429 32.5C28.1572 32.5 30.2143 30.4429 30.2143 27.9286V5.07143C30.2143 2.55714 28.1572 0.5 25.6429 0.5C23.1286 0.5 21.0714 2.55714 21.0714 5.07143Z" fill="black"/>
</g>
<defs>
<clipPath id="clip0_46_14">
<rect width="32" height="32" fill="white" transform="translate(0.5 0.5)"/>
</clipPath>
</defs>
</svg>
