<svg width="33" height="33" viewBox="0 0 33 33" fill="none" xmlns="http://www.w3.org/2000/svg">
<path d="M5.07191 16.542C5.07191 19.5103 6.01358 21.7182 8.21997 23.9231C8.50588 24.2088 8.89359 24.3692 9.29779 24.3691C9.702 24.3689 10.0896 24.2082 10.3753 23.9223C10.661 23.6364 10.8215 23.2487 10.8213 22.8445C10.8212 22.4403 10.6605 22.0527 10.3745 21.767C8.73042 20.1244 8.1194 18.7088 8.1194 16.542C8.11629 15.4413 8.33167 14.3508 8.75304 13.3339C9.17441 12.3169 9.79341 11.3937 10.5742 10.6177C12.104 9.08941 13.7405 8.32906 15.7976 8.1904L13.899 10.0905C13.7575 10.232 13.6453 10.3999 13.5687 10.5848C13.4921 10.7696 13.4527 10.9677 13.4527 11.1678C13.4527 11.3679 13.4921 11.566 13.5687 11.7508C13.6453 11.9357 13.7575 12.1036 13.899 12.2451C14.0404 12.3866 14.2084 12.4988 14.3932 12.5753C14.5781 12.6519 14.7762 12.6913 14.9763 12.6913C15.1763 12.6913 15.3744 12.6519 15.5593 12.5753C15.7441 12.4988 15.9121 12.3866 16.0535 12.2451L21.7021 6.59656L16.0535 0.948034C15.9124 0.806044 15.7445 0.693363 15.5596 0.616474C15.3747 0.539583 15.1765 0.5 14.9763 0.5C14.776 0.5 14.5778 0.539583 14.3929 0.616474C14.208 0.693363 14.0401 0.806044 13.899 0.948034C13.6133 1.23378 13.4528 1.62128 13.4528 2.02532C13.4528 2.42937 13.6133 2.81687 13.899 3.10261L15.9362 5.13833C13.0061 5.26328 10.5391 6.34514 8.41958 8.46163C7.35497 9.52021 6.51091 10.7795 5.93628 12.1665C5.36165 13.5535 5.06785 15.0407 5.07191 16.542ZM24.8806 16.5009C24.8806 18.7393 24.009 20.8436 22.4258 22.4267C20.8884 23.9642 19.2382 24.7246 17.1583 24.8556L19.101 22.9128C19.3153 22.7001 19.4615 22.4284 19.521 22.1324C19.5805 21.8363 19.5506 21.5293 19.4351 21.2503C19.3196 20.9713 19.1238 20.7329 18.8725 20.5655C18.6211 20.3982 18.3257 20.3093 18.0237 20.3103C17.6197 20.3104 17.2321 20.4709 16.9465 20.7567L11.2979 26.4052L16.9465 32.0538C17.0879 32.1952 17.2559 32.3075 17.4407 32.384C17.6256 32.4606 17.8237 32.5 18.0237 32.5C18.2238 32.5 18.4219 32.4606 18.6068 32.384C18.7916 32.3075 18.9596 32.1952 19.101 32.0538C19.2425 31.9123 19.3547 31.7443 19.4313 31.5595C19.5079 31.3747 19.5473 31.1766 19.5473 30.9765C19.5473 30.7764 19.5079 30.5783 19.4313 30.3935C19.3547 30.2086 19.2425 30.0407 19.101 29.8992L17.1034 27.9016C20.0199 27.7705 22.4746 26.6887 24.5804 24.5813C25.645 23.5227 26.4891 22.2635 27.0637 20.8765C27.6384 19.4895 27.9321 18.0022 27.9281 16.5009C27.9281 13.5326 26.9864 11.3247 24.78 9.11988C24.6388 8.97799 24.4708 8.86543 24.2859 8.78867C24.1009 8.71191 23.9027 8.67247 23.7024 8.67261C23.5022 8.67275 23.304 8.71247 23.1191 8.7895C22.9343 8.86652 22.7665 8.97931 22.6255 9.1214C22.4838 9.26292 22.3714 9.43097 22.2947 9.61595C22.218 9.80093 22.1786 9.99921 22.1786 10.1995C22.1786 10.3997 22.218 10.598 22.2947 10.783C22.3714 10.9679 22.4838 11.136 22.6255 11.2775C24.2696 12.9186 24.8806 14.3341 24.8806 16.5009Z" fill="black"/>
</svg>
